<?xml version="1.0" encoding="UTF-8"?>
<svg id="Layer_1" xmlns="http://www.w3.org/2000/svg" version="1.1" viewBox="0 0 601 601">
  <!-- Generator: Adobe Illustrator 29.7.1, SVG Export Plug-In . SVG Version: 2.1.1 Build 8)  -->
  <defs>
    <style>
      .st0 {
        fill: #126735;
        stroke: #126735;
      }

      .st0, .st1 {
        stroke-miterlimit: 10;
      }

      .st1 {
        fill: none;
        stroke: #fef7b6;
        stroke-linecap: round;
        stroke-width: 7px;
      }
    </style>
  </defs>
  <rect class="st0" x=".5" y=".5" width="600" height="600"/>
  <g id="Layer_5">
    <path class="st1" d="M169.9,54.6c9-1,22.4,18.5,30.3,29.8,11.9,18.9,30.7,49.7,22.4,71.5-6.3,14.6-26.2,16.1-40.4,19.9-30.7,8-64.3,21.5-80.6,49.1-16.2,25.2-15.9,57.4-9.1,83.7,6.8,28.2,26.2,38.1,55.7,30.3,37-10.6,81.1-27.9,116.1-39.4,53.2-17.6,54.7-16.4,106.9-41.9,4.3-2.4,21.9-9.6,24.7-13.2,8.7-10.8-1.3-23.7-9.2-17.9-6.5,4.7-11.8,6.1-21.2,10.7-22.7,10.9-36.8,15.3-60.4,24-29.6,11-41.1,15.1-71.3,26.1-21.1,7.7-43.3,12.3-61,25.2-26.8,19.6-45.2,43.6-33.4,76.5,6.3,18.1,16.2,34.9,26.7,52.8,11.7,19,22.8,37.4,37.3,54.2,40.8,44.8,113.4,51.9,172,50.6,14.4-.2,28.1-1.9,42.2-2.9,5.1,0,10.3,1.6,15.5,1.6,5.3,0,8.4-1.6,9.6-6.8,1.1-3.9,1.8-7.8,3.9-12.2,4-8.6,10.8-16.4,16.8-24.3,47.3-65.7,58.3-129,43.2-179.2-9.2-25.9-17.7-52.8-31.1-76.5-3.9-6.5-8.1-11.1-13.3-15.9-5.7-5-9.9-11.6-10.4-19.1-1.1-11.4,2.9-23.4-.8-34.8-11.2-36.9-59.1-43.9-94.1-46.6-25.2-1.7-52.8-1.4-75.5,10.3-10.2,5.2-19.9,12.5-31.5,14.3-22.9,3.5-42.5-14-56.2-29.5-11.7-13.6-21.3-32.8-25.2-48.9-1.2-6-4.4-17.9,1.3-21.2h0s0,0,0,0Z"/>
  </g>
</svg>